<?xml version="1.0" encoding="UTF-8" standalone="no"?>
<!-- Created with Inkscape (http://www.inkscape.org/) -->

<svg
   version="1.1"
   id="svg2"
   width="351"
   height="351"
   viewBox="0 0 351 351"
   xmlns="http://www.w3.org/2000/svg"
   xmlns:svg="http://www.w3.org/2000/svg">
  <defs
     id="defs6" />
  <g
     id="g8">
    <path
       d="m 170.5846,46.291035 c -5.43022,-3.08335 -7.61389,-5.674161 -6.06212,-7.192373 0.53763,-0.526012 4.57752,-1.475543 8.97752,-2.11007 4.4,-0.634527 11.6,-1.737707 16,-2.451512 l 8,-1.297827 -5.5,-0.321637 c -7.34485,-0.429524 -9.22821,-0.394006 -25.25,0.476186 -15.75079,0.855473 -16.90135,0.208748 -8.99807,-5.057784 11.49743,-7.661567 20.9305,-10.620912 33.72306,-10.5796 10.45964,0.03378 18.30897,2.449728 27.84068,8.569094 7.6572,4.915926 7.4374,6.611483 -1.66687,12.85832 -9.98632,6.852061 -16.81587,8.963116 -30.6488,9.473735 -11.12093,0.410511 -11.66203,0.332503 -16.4154,-2.366532 z"
       id="path331"
       class="UnoptimicedTransforms"
       style="fill:#739a01;fill-opacity:1"
       transform="rotate(39.673928,173.45842,201.23401)" />
    <path
       style="fill:#769a04;fill-opacity:1"
       d="m 170.5846,46.291035 c -5.43022,-3.08335 -7.61389,-5.674161 -6.06212,-7.192373 0.53763,-0.526012 4.57752,-1.475543 8.97752,-2.11007 4.4,-0.634527 11.6,-1.737707 16,-2.451512 l 8,-1.297827 -5.5,-0.321637 c -7.34485,-0.429524 -9.22821,-0.394006 -25.25,0.476186 -15.75079,0.855473 -16.90135,0.208748 -8.99807,-5.057784 11.49743,-7.661567 20.9305,-10.620912 33.72306,-10.5796 10.45964,0.03378 18.30897,2.449728 27.84068,8.569094 7.6572,4.915926 7.4374,6.611483 -1.66687,12.85832 -9.98632,6.852061 -16.81587,8.963116 -30.6488,9.473735 -11.12093,0.410511 -11.66203,0.332503 -16.4154,-2.366532 z m 32.78715,-2.785381 c 7.03991,-2.576119 17.64654,-9.060513 18.36986,-11.230471 0.51897,-1.556916 -12.10563,-8.789101 -18.67311,-10.697161 -11.56002,-3.358551 -25.26577,-1.261811 -39.02952,5.970835 -3.9023,2.050601 -6.96997,3.851867 -6.81704,4.002813 0.15293,0.150947 4.32806,-0.18403 9.27806,-0.744393 10.21718,-1.156631 32.73949,-0.518712 36.5,1.033821 1.375,0.567671 1.825,1.067544 1,1.110828 -1.20372,0.06316 -1.23706,0.245385 -0.16879,0.922593 0.90502,0.573721 0.10465,1.027342 -2.5,1.416902 C 177.18457,38.902878 168,40.54487 168,41.250281 c 0,0.462951 2.3625,1.974094 5.25,3.358096 4.73938,2.271622 6.11288,2.467219 14.12175,2.011044 6.04334,-0.344221 11.14432,-1.336926 16,-3.113767 z"
       id="path326"
       class="UnoptimicedTransforms"
       transform="rotate(39.673928,173.45842,201.23401)" />
    <path
       d="M 217.5,85.526321 C 208.43659,83.482556 201.00335,79.754648 193.79053,73.635574 187.72441,68.48931 181,59.828845 181,57.162453 c 0,-2.199282 0.43346,-2.041979 25.5,9.253958 7.32148,3.299338 7.74556,3.388215 5,1.047896 -1.65,-1.406465 -7.6125,-5.345278 -13.25,-8.752919 C 192.6125,55.303747 188,51.889486 188,51.124142 c 0,-1.126451 1.85736,-1.29992 9.75,-0.910608 8.73858,0.431039 10.47615,0.854882 16.75,4.085817 7.64036,3.934665 11.16194,6.830976 16.65838,13.700649 4.88653,6.107386 8.02392,12.597269 7.65071,15.825988 -0.30214,2.613879 -0.47775,2.678277 -7.80909,2.863661 -4.125,0.104307 -10.2,-0.419191 -13.5,-1.163328 z"
       id="path3355"
       class="UnoptimicedTransforms"
       style="fill:#739a01;fill-opacity:1"
       transform="rotate(39.673928,173.45842,201.23401)" />
    <path
       style="fill:#739a01;fill-opacity:1"
       d="M 217.5,85.526321 C 208.43659,83.482556 201.00335,79.754648 193.79053,73.635574 187.72441,68.48931 181,59.828845 181,57.162453 c 0,-2.199282 0.43346,-2.041979 25.5,9.253958 7.32148,3.299338 7.74556,3.388215 5,1.047896 -1.65,-1.406465 -7.6125,-5.345278 -13.25,-8.752919 C 192.6125,55.303747 188,51.889486 188,51.124142 c 0,-1.126451 1.85736,-1.29992 9.75,-0.910608 8.73858,0.431039 10.47615,0.854882 16.75,4.085817 7.64036,3.934665 11.16194,6.830976 16.65838,13.700649 4.88653,6.107386 8.02392,12.597269 7.65071,15.825988 -0.30214,2.613879 -0.47775,2.678277 -7.80909,2.863661 -4.125,0.104307 -10.2,-0.419191 -13.5,-1.163328 z M 235.46133,80.25 C 233.02038,74.402964 227.0373,66.271492 222.3499,62.430515 215.92867,57.168799 206.448,53.108515 198.96716,52.416397 L 192.5,51.818063 l 8.50421,5.340968 c 15.54648,9.763787 22.53164,15.63845 20.73312,17.436974 -0.63229,0.632289 -15.26182,-5.073557 -27.10706,-10.572365 -4.87835,-2.264632 -9.09877,-3.888469 -9.37872,-3.608527 -0.27994,0.279943 2.87006,3.822872 7,7.873176 11.27741,11.059952 21.57741,15.53463 36.01187,15.644815 L 237.02684,84 Z"
       id="path324"
       class="UnoptimicedTransforms"
       transform="rotate(39.673928,173.45842,201.23401)" />
    <path
       d="m 184.57166,218.27527 c -11.52031,0.4897 -17.05995,-16.71026 -7.19064,-22.32611 l 3.20247,-1.82227 -10.44186,-17.86876 c -5.74342,-9.82759 -10.42442,-18.59646 -10.40312,-19.48587 0.0213,-0.88941 5.78726,-7.05928 12.81324,-13.71084 10.608,-10.04267 13.15165,-12.02221 14.99814,-11.67197 1.8884,0.35819 4.09076,3.61286 14.60989,21.59072 13.37751,22.86297 15.16335,27.22205 13.52485,33.01245 -0.88074,3.11245 -2.04889,4.33067 -6.67908,6.96534 -4.86407,2.76776 -6.17481,3.03167 -9.83898,1.98107 -3.50597,-1.00524 -4.722,-2.057 -7.12609,-6.1634 -2.55,-4.35562 -2.72598,-5.50765 -1.46271,-9.57547 1.07741,-3.46934 2.38294,-5.16295 5.22766,-6.78166 l 3.79162,-2.15751 -7.10103,-12.12917 -7.10103,-12.12918 -3.50662,3.22026 c -1.92864,1.77114 -4.85642,4.57154 -6.50618,6.22311 l -2.99955,3.00286 13.02838,22.25361 c 14.46755,24.71184 14.77433,25.66524 10.21554,31.74833 -3.1418,4.19233 -5.81701,5.60182 -11.05491,5.82447 z"
       id="path5000"
       class="UnoptimicedTransforms"
       style="fill:#563515;fill-opacity:1"
       transform="rotate(39.673928,173.45842,201.23401)" />
    <path
       style="fill:#563515;fill-opacity:1"
       d="M 166,197.24845 C 156.69353,192.59934 160.26421,177 170.63486,177 H 174 l 0.0153,-18.25 c 0.008,-10.0375 0.36485,-18.80016 0.79207,-19.47257 0.42721,-0.67242 7.8192,-2.8867 16.42663,-4.92063 12.9957,-3.07087 15.91413,-3.47875 17.20794,-2.40498 1.32318,1.09815 1.55721,4.5533 1.55247,22.92062 -0.006,23.35827 -0.60992,27.47826 -4.57346,31.20182 -2.13049,2.00148 -3.61341,2.42574 -8.4788,2.42574 -5.11115,0 -6.26608,-0.36938 -8.66943,-2.77273 -2.29958,-2.29957 -2.77273,-3.63607 -2.77273,-7.83203 0,-4.45061 0.39291,-5.41036 3.26578,-7.97727 2.4502,-2.18925 4.26077,-2.91797 7.25,-2.91797 h 3.98422 v -12.3937 -12.39371 l -4.25,0.93887 c -2.3375,0.51637 -5.9375,1.38588 -8,1.93224 l -3.75,0.99339 v 22.73895 c 0,25.25078 -0.19815,26.11533 -6.59857,28.78959 -4.41102,1.84304 -7.17009,1.75661 -11.40143,-0.35718 z m 12.69424,-3.65994 2.80576,-2.41149 0.5,-23.74135 0.5,-23.74135 7.5,-1.80517 c 13.01827,-3.13336 12,-4.20347 12,12.61085 V 169 h -4.07692 c -5.77746,0 -10.17767,4.38567 -9.73438,9.7022 0.2485,2.9803 1.01736,4.20846 3.8113,6.08805 4.41575,2.97065 8.43994,2.37818 12.25,-1.80354 l 2.75,-3.01826 v -22.98423 c 0,-17.70954 -0.28686,-22.98902 -1.25,-23.00515 -0.6875,-0.0115 -7.4375,1.41587 -15,3.17197 L 177,140.34394 V 159.67197 179 h -4.07692 C 167.68849,179 163,183.23748 163,187.96853 c 0,7.30905 9.69125,10.77941 15.69424,5.61998 z"
       id="path322"
       class="UnoptimicedTransforms"
       transform="matrix(1.0781935,0.19075803,-0.18379407,1.1190463,28.405703,-30.950591)" />
    <path
       d="m 86.774368,253.30415 c -3.075252,-4.25837 -5.760756,-8.24556 -5.967782,-8.86043 -0.631703,-1.87615 4.759608,-7.48884 8.391318,-8.73588 1.875922,-0.64415 8.596279,-1.2088 14.934116,-1.25478 6.33785,-0.046 17.28692,-0.56975 24.33128,-1.16394 14.77967,-1.24667 22.88291,-4.22671 35.5329,-13.06748 17.49373,-12.22598 28.35543,-16.68161 41.65587,-17.08785 10.18664,-0.31114 26.91709,4.14561 35.86763,9.55461 2.14477,1.29613 4.67282,2.21139 5.61787,2.03392 2.47091,-0.46402 5.90334,-8.87411 6.90776,-16.92525 0.44432,-3.56161 1.6247,-7.47849 2.62307,-8.70418 0.99834,-1.22571 5.43328,-3.97833 9.85538,-6.11694 6.9991,-3.38491 8.65965,-4.63632 12.82418,-9.66451 5.34259,-6.45053 7.51298,-12.35137 7.70734,-20.95459 0.13461,-5.95852 -2.01542,-9.38604 -10.10082,-16.10248 -15.65023,-13.0004 -38.5925,-13.54411 -56.42642,-1.33716 -8.19672,5.61049 -9.64418,7.74986 -9.68334,14.31224 -0.0434,7.26664 -2.9957,11.43851 -9.2142,13.02031 -18.1114,4.60697 -20.87253,6.25163 -28.39834,16.91537 l -5.06163,7.17208 -4.2219,0.3936 c -2.32205,0.21647 -4.80403,-0.0892 -5.51552,-0.67939 -2.5782,-2.13849 -16.45632,-4.2312 -23.5755,-3.55501 -14.14263,1.3433 -25.33855,8.76791 -30.87284,20.47344 -1.51722,3.20907 -4.012038,9.90052 -5.544041,14.86991 -2.392198,7.75964 -3.336433,9.5871 -6.688084,12.94396 -4.648994,4.65624 -13.077923,9.63954 -17.205589,10.17217 -3.919274,0.50575 -8.59465,-3.29999 -9.558226,-7.78039 -0.892427,-4.14955 2.509671,-8.58744 8.59046,-11.20588 5.220907,-2.24817 6.4372,-4.17763 10.927144,-17.33422 3.32248,-9.73565 3.762251,-10.49762 11.409591,-19.76889 9.336475,-11.3191 13.366575,-13.97707 27.609885,-18.20961 9.55294,-2.83876 19.06162,-3.06841 29.86019,-0.72119 l 6.8757,1.49454 4.24515,-5.11177 c 5.38639,-6.48612 14.40892,-12.47819 22.14404,-14.70552 l 5.93048,-1.70768 1.43097,-7.44655 c 1.86418,-9.70085 4.79515,-15.88027 11.21312,-23.64073 9.29672,-11.24138 17.83703,-16.404068 32.04357,-19.370543 9.94205,-2.075999 28.56695,0.539747 33.77018,4.742813 1.19739,0.96723 1.6667,0.68151 2.95728,-1.800408 4.34627,-8.358339 5.4962,-25.760463 2.46065,-37.237434 -2.19375,-8.294217 -5.01137,-14.253089 -10.06811,-21.292654 -3.98963,-5.553891 -4.1319,-7.916808 -0.72423,-12.025165 3.21854,-3.880349 8.29918,-4.501907 11.96239,-1.463461 6.60535,5.478792 13.64233,19.910535 16.62839,34.10222 3.0103,14.306917 1.33523,32.357409 -4.12543,44.455652 l -2.55286,5.65593 4.8716,6.35266 c 12.74894,16.62487 15.89991,37.27652 8.40928,55.11496 -4.02279,9.58001 -14.55794,21.13168 -23.18217,25.419 l -6.0361,3.0007 -0.83343,4.94324 c -1.41871,8.41475 -5.0226,15.36798 -11.89873,22.95708 -5.39815,5.95788 -7.10101,7.22517 -14.04267,10.45079 -8.69159,4.03877 -22.88012,6.00996 -31.69149,4.40286 -3.87404,-0.70659 -4.91716,-0.49562 -5.55121,1.12274 -0.4294,1.09605 -3.72067,5.89113 -7.31392,10.65573 -9.93725,13.17672 -22.08269,21.27788 -39.42925,26.29986 -27.05038,7.83129 -56.17595,-3.17375 -74.104952,-28.00042 z"
       id="path8512"
       class="UnoptimicedTransforms"
       style="fill:#563515;fill-opacity:1"
       transform="translate(-30.529785,12.172063)" />
    <path
       style="fill:#563515;fill-opacity:1"
       d="m 124.25344,325.51198 c -5.08561,-1.31433 -9.69811,-2.66876 -10.25,-3.00985 -1.68398,-1.04076 -1.11758,-8.8027 0.88158,-12.08108 1.03264,-1.69342 5.84475,-6.41842 10.69357,-10.5 4.84882,-4.08158 12.94183,-11.4748 17.98446,-16.42939 10.57987,-10.39515 14.91435,-17.86211 19.00681,-32.74274 5.65948,-20.57852 11.17507,-30.94228 21.15293,-39.74619 7.64192,-6.74281 23.36445,-13.99351 33.7068,-15.54444 2.47828,-0.37164 5.00841,-1.28112 5.6225,-2.02106 1.6056,-1.93462 -1.12164,-10.59911 -5.48854,-17.43723 -1.9318,-3.025 -3.52388,-6.79336 -3.53795,-8.37414 -0.0141,-1.58078 1.64211,-6.53078 3.68043,-11 3.22615,-7.07368 3.70533,-9.097 3.70065,-15.62586 -0.006,-8.37571 -2.10267,-14.30314 -7.44552,-21.04904 -3.70041,-4.67215 -7.54346,-5.93766 -18.05461,-5.94538 -20.34551,-0.0149 -38.35106,14.21337 -44.28452,34.99442 -2.7271,9.55127 -2.47538,12.12201 1.68402,17.19801 4.60578,5.62074 4.99678,10.71661 1.22031,15.90411 -10.99899,15.10858 -12.07423,18.13721 -11.05885,31.1496 l 0.6829,8.75171 -2.99828,2.99829 C 139.50307,226.65077 137.39754,228 136.47316,228 c -3.34967,0 -15.36755,7.24929 -20.41541,12.31476 -10.02786,10.06283 -13.90525,22.92515 -10.69192,35.46797 0.88093,3.43861 3.23264,10.18169 5.22602,14.98464 3.11264,7.49974 3.55255,9.50913 3.1159,14.23263 -0.60566,6.55186 -3.9119,15.76863 -6.74888,18.81377 -2.69375,2.8914 -8.721994,2.947 -12.324011,0.11365 -3.336041,-2.62413 -3.550707,-8.21189 -0.542042,-14.10936 2.583212,-5.06351 2.28758,-7.3251 -2.655957,-20.31806 -3.658127,-9.61456 -3.806096,-10.4818 -3.838955,-22.5 -0.04012,-14.67277 1.364907,-19.29147 9.625713,-31.6424 5.540492,-8.28373 12.712622,-14.531 22.522682,-19.61836 l 6.2463,-3.23924 0.004,-6.64466 c 0.005,-8.43106 3.12411,-18.80325 7.65579,-25.45584 l 3.47442,-5.1005 -3.65261,-6.6451 c -4.75835,-8.65677 -6.44746,-15.28419 -6.46203,-25.35468 -0.0211,-14.58758 3.25634,-24.01353 12.29712,-35.3665 6.32695,-7.945061 22.33229,-17.822212 29.02047,-17.908985 1.53912,-0.01997 1.71794,-0.539499 1.12678,-3.273735 -1.99083,-9.208067 -12.21556,-23.336449 -21.8791,-30.232206 -6.98368,-4.98345 -12.95662,-7.771119 -21.34293,-9.961088 C 119.61803,44.828981 118,43.101093 118,37.763416 118,32.721974 121.5137,29 126.27304,29 c 8.58183,0 23.2116,6.615441 34.57016,15.63229 11.45079,9.090062 21.68526,24.052739 25.20597,36.850818 l 1.64594,5.983108 7.80527,1.779468 c 20.42634,4.656849 36.03599,18.540586 41.6589,37.052806 3.01975,9.94186 2.28574,25.55889 -1.61515,34.36466 l -2.73023,6.16316 2.51438,4.33684 c 4.28015,7.38248 5.94534,15.0351 5.49787,25.2662 -0.35129,8.03199 -0.8529,10.09455 -4.13654,17.00896 -4.11141,8.65746 -13.77374,19.23288 -21.58177,23.62124 -3.4329,1.9294 -4.1011,2.75773 -3.55593,4.40815 0.36923,1.11776 0.89724,6.90969 1.17336,12.87095 0.76364,16.48611 -3.41266,30.47535 -13.55802,45.41507 -15.82077,23.29711 -45.26425,33.42091 -74.91381,25.75826 z m 34.93894,-1.48129 c 25.32442,-6.38216 44.51448,-27.2829 50.3559,-54.84479 2.08477,-9.8367 1.79995,-17.96353 -0.99195,-28.30382 -0.63738,-2.36065 -0.1868,-2.93791 4.58508,-5.87407 13.62366,-8.38273 23.9807,-23.29688 25.40329,-36.58079 0.87237,-8.14608 -1.6769,-19.66728 -5.78511,-26.14525 -3.16921,-4.99733 -3.17982,-4.82497 0.87896,-14.28197 2.42035,-5.63944 2.79444,-7.82394 2.82557,-16.5 0.0505,-14.07801 -3.60877,-23.30668 -13.43224,-33.87593 -7.8963,-8.495779 -17.03,-13.484205 -29.42377,-16.069972 -3.79055,-0.790837 -7.21965,-1.801534 -7.62023,-2.245992 C 185.58729,88.863648 184.32002,85.35 183.17171,81.5 179.43221,68.962404 170.57214,56.245546 159.07477,46.913672 150.51298,39.964463 143.50865,36.157697 133.7387,33.143836 c -4.99074,-1.539561 -7.41622,-1.836743 -9.26229,-1.134868 -3.27239,1.244163 -4.88579,4.787627 -3.65135,8.019377 0.77184,2.020663 2.56174,2.96432 9.80952,5.171698 11.82836,3.602433 22.57619,10.692155 29.84223,19.685185 6.02163,7.452857 11.65321,18.465613 11.87825,23.228347 0.1359,2.876151 -0.19796,3.175882 -5.35506,4.807644 -24.14102,7.638471 -39.72733,30.156841 -37.58683,54.303701 0.69402,7.82922 3.69101,16.53065 7.73415,22.45526 1.56897,2.29909 2.85268,4.72035 2.85268,5.38057 0,0.66021 -1.50834,3.2999 -3.35188,5.86596 -5.05354,7.03417 -7.79304,15.27525 -8.39435,25.2523 l -0.52309,8.67902 -6.11534,3.03755 c -8.82787,4.38488 -16.88759,11.1425 -21.645023,18.14813 -12.937425,19.0512 -13.911837,35.75024 -3.464522,59.37348 3.113494,7.04016 3.104138,8.05799 -0.146836,15.97427 -2.892256,7.04278 -2.735723,8.66034 1.080012,11.16051 5.435949,3.56177 10.119489,-1.27311 12.938329,-13.35642 1.67637,-7.18595 1.30429,-9.18632 -4.03549,-21.69555 C 102.63052,278.80576 102.5,278.10931 102.5,267 c 0,-11.17976 0.0946,-11.6744 3.39607,-17.76265 5.07493,-9.35863 11.61878,-15.43517 21.86894,-20.30723 4.80425,-2.28353 9.40999,-4.48365 10.23499,-4.88915 2.84629,-1.39901 3.77097,-4.7989 2.78321,-10.23341 -1.06601,-5.86507 0.36947,-16.26834 2.92726,-21.21456 0.87787,-1.69761 3.77714,-5.96762 6.44283,-9.48891 2.66568,-3.5213 4.8467,-7.3014 4.8467,-8.40023 0,-1.09883 -1.51043,-3.84422 -3.35652,-6.10087 -1.84608,-2.25664 -4.65694,-6.80299 -6.24635,-10.10299 -2.59259,-5.38285 -2.8902,-7.02858 -2.89348,-16 -0.003,-9.09403 0.25811,-10.49828 2.88564,-15.5 4.33451,-8.25109 8.80818,-13.15748 15.73149,-17.25314 13.20836,-7.81373 28.00169,-8.40721 41.68238,-1.67223 20.38507,10.03554 26.84171,31.73476 15.88096,53.3721 l -3.01242,5.94672 2.20413,3.55328 c 8.2523,13.30353 10.00488,23.02104 6.05141,33.55327 -2.86664,7.63685 -11.81375,16.78404 -20.42724,20.88404 -3.3,1.57079 -6.7875,3.54672 -7.75,4.39096 -2.19933,1.9291 -2.26386,7.09519 -0.14999,12.00712 2.42882,5.64374 2.92055,19.37803 0.98792,27.59354 -5.02526,21.36223 -22.53543,39.05942 -42.31312,42.76507 -6.85956,1.28524 -17.37123,0.62633 -26.04149,-1.63237 -7.40018,-1.92784 -9.71458,-1.41218 -11.80497,2.63019 -2.6899,5.20171 -1.66842,7.02758 5.07165,9.06548 13.751,4.15768 26.07331,4.75485 37.69238,1.82666 z m 3.91039,-16.64063 c 6.14152,-2.40954 8.63045,-4.16711 15.41006,-10.88187 15.30025,-15.1539 21.09138,-34.83211 15.50007,-52.6691 -2.48569,-7.92965 -2.5744,-13.02496 -0.2629,-15.10038 0.9625,-0.8642 4.9,-3.20587 8.75,-5.20371 11.04652,-5.73226 18.60854,-14.37926 20.90635,-23.90595 l 0.69247,-2.87096 -4.79941,0.67365 c -7.08672,0.9947 -13.8777,3.33956 -22.29941,7.69977 -16.41675,8.49953 -25.53801,21.093 -31.04901,42.86849 -1.18317,4.675 -4.33502,13 -7.00411,18.5 -5.16513,10.64338 -12.01947,18.84319 -22.89653,27.39102 -2.99731,2.35545 -7.60855,6.22368 -10.2472,8.59606 l -4.79755,4.3134 7.7472,1.66344 c 4.26096,0.91489 8.1972,1.85363 8.7472,2.08608 0.55,0.23245 4.88761,0.26313 9.63912,0.0682 6.54655,-0.26859 10.41328,-1.05051 15.96365,-3.22813 z M 153.69182,137.8718 c 4.78735,-8.90404 13.844,-17.57228 23.02139,-22.03407 6.06621,-2.94923 7.95471,-3.35467 17.78679,-3.81864 l 11,-0.51909 -4.77126,-2.26511 c -11.47449,-5.44743 -22.66395,-5.38283 -34.42295,0.19872 -8.47674,4.02359 -15.13797,10.48962 -19.08435,18.5251 -2.35823,4.80174 -2.71835,6.74245 -2.69829,14.54129 0.0137,5.33713 0.57067,10.22096 1.36847,12 l 1.34532,3 1.32335,-6.27267 c 0.72784,-3.44996 3.03703,-9.45995 5.13153,-13.35553 z"
       id="path314"
       class="UnoptimicedTransforms"
       transform="rotate(39.673928,173.45842,201.23401)" />
    <path
       style="fill:#b67741;fill-opacity:1;stroke-width:0.840425"
       d="m 102.67753,277.20476 c -5.700195,-1.10877 -14.968625,-5.73385 -20.665045,-10.31215 -2.58333,-2.07626 -7.0145,-6.77083 -9.84704,-10.43238 l -5.150076,-6.65735 3.123646,-0.51639 c 1.718,-0.28402 9.05543,-0.52056 16.30539,-0.52564 16.841125,-0.0118 23.823575,-1.46495 39.201665,-8.15833 0.81442,-0.35449 1.04236,0.17178 0.84042,1.94038 -0.25603,2.24238 -0.5964,2.46117 -4.47921,2.87922 -4.93078,0.5309 -7.23955,1.84225 -9.2573,5.25802 -3.09487,5.23921 -1.42111,12.75663 3.52024,15.81055 2.35919,1.45806 3.82992,1.71788 8.01194,1.41538 8.30008,-0.60038 9.11485,-2.08554 12.81355,-23.3566 1.92009,-11.0423 2.33692,-12.36366 4.4408,-14.0772 3.73662,-3.04335 17.01436,-9.35963 22.56915,-10.73624 l 5.11969,-1.26878 3.02535,2.85327 c 1.66394,1.5693 4.27657,3.07912 5.80583,3.35515 3.72185,0.6718 8.8173,-0.59358 11.12669,-2.76315 l 1.88058,-1.7667 5.81212,1.77944 c 6.2066,1.90021 17.15786,7.25426 17.15786,8.38843 0,1.54641 -11.10067,6.05621 -16.99851,6.90588 -5.01044,0.72183 -7.59515,0.62581 -13.8223,-0.51346 -10.5981,-1.93894 -13.86674,-1.83896 -16.00771,0.48965 -0.95622,1.04002 -3.44402,5.30925 -5.52844,9.48717 -2.08442,4.17792 -5.32452,9.53771 -7.20021,11.91064 -6.64038,8.40072 -19.74199,15.75748 -31.6289,17.76014 -8.33534,1.40431 -15.72334,1.71603 -20.17018,0.85105 z"
       id="path8498" />
    <path
       style="fill:#b67741;fill-opacity:1;stroke-width:0.840425"
       d="m 246.46394,145.32966 c -9.0178,-6.75364 -13.83606,-8.48198 -25.08229,-8.99719 -13.98722,-0.64079 -24.19865,2.17183 -34.342,9.45911 -2.25801,1.62222 -4.30138,2.94948 -4.54082,2.94948 -1.05214,0 3.23463,-6.77724 7.54293,-11.92513 4.94321,-5.90655 9.97599,-9.01257 17.36256,-10.71545 12.64369,-2.91484 28.28158,1.48546 37.27519,10.48876 3.75995,3.76401 9.51446,12.61216 8.7195,13.40712 -0.16577,0.16577 -3.28655,-1.93425 -6.93507,-4.6667 z"
       id="path8500" />
    <path
       style="fill:#b67741;fill-opacity:1;stroke-width:0.329624"
       d="m 105.60511,277.31333 c -6.053535,-0.39899 -15.598105,-4.60924 -22.744095,-10.03275 -4.0909,-3.10483 -15.711009,-16.53843 -14.957541,-17.2919 0.52042,-0.52042 7.350301,-0.98078 14.627921,-0.98598 18.906825,-0.0135 26.069365,-1.21857 39.329035,-6.61696 8.68953,-3.04885 9.23968,-11.55105 44.06594,-22.89939 1.17841,-0.27142 2.38536,-0.56817 2.68212,-0.65942 0.3473,-0.1068 1.38727,0.61201 2.9185,2.01723 3.1989,2.93562 5.68511,4.10113 8.73804,4.09629 3.84661,-0.006 7.18725,-1.20436 9.70895,-3.48257 l 1.27383,-1.15082 4.89178,1.61358 c 7.54583,2.48905 17.58338,7.28187 17.58173,8.3951 -0.001,0.96735 -5.53936,3.56247 -11.67096,5.46911 -6.38768,1.98628 -11.12831,2.11568 -20.12473,0.54933 -6.2423,-1.08684 -10.12596,-1.36825 -11.96569,-0.86704 -2.68691,0.73201 -3.48178,1.82954 -9.72864,13.43291 -2.68096,4.97981 -5.27351,8.92389 -7.49232,11.39816 -4.86499,5.42513 -13.70563,10.9349 -22.25609,13.87073 -6.93272,2.38037 -17.05623,3.65991 -24.87778,3.14439 z"
       id="path8502" />
  </g>
</svg>
